<mxfile host="65bd71144e">
    <diagram id="CrboGVL7-sid2KMsB50T" name="Страница 1">
        <mxGraphModel dx="1609" dy="799" grid="1" gridSize="10" guides="1" tooltips="1" connect="1" arrows="1" fold="1" page="1" pageScale="1" pageWidth="827" pageHeight="1169" math="0" shadow="0">
            <root>
                <mxCell id="0"/>
                <mxCell id="1" parent="0"/>
                <mxCell id="10" style="edgeStyle=none;html=1;exitX=0.5;exitY=1;exitDx=0;exitDy=0;entryX=0.5;entryY=0;entryDx=0;entryDy=0;" edge="1" parent="1" source="9" target="8">
                    <mxGeometry relative="1" as="geometry"/>
                </mxCell>
                <mxCell id="9" value="" style="rounded=0;whiteSpace=wrap;html=1;" vertex="1" parent="1">
                    <mxGeometry x="214" y="65" width="400" height="280" as="geometry"/>
                </mxCell>
                <mxCell id="2" value="*.mql5" style="html=1;" vertex="1" parent="1">
                    <mxGeometry x="214" y="545" width="120" height="40" as="geometry"/>
                </mxCell>
                <mxCell id="3" value="*.mql4" style="html=1;" vertex="1" parent="1">
                    <mxGeometry x="494" y="545" width="120" height="40" as="geometry"/>
                </mxCell>
                <mxCell id="4" value="&amp;lt;expert&amp;gt;.mqh" style="html=1;" vertex="1" parent="1">
                    <mxGeometry x="254" y="265" width="120" height="40" as="geometry"/>
                </mxCell>
                <mxCell id="5" value="&amp;lt;indicator&amp;gt;.mqh" style="html=1;" vertex="1" parent="1">
                    <mxGeometry x="254" y="185" width="120" height="40" as="geometry"/>
                </mxCell>
                <mxCell id="6" value="&amp;lt;script&amp;gt;.mqh" style="html=1;" vertex="1" parent="1">
                    <mxGeometry x="254" y="105" width="120" height="40" as="geometry"/>
                </mxCell>
                <mxCell id="7" value="&amp;lt;header&amp;gt;.mqh" style="html=1;" vertex="1" parent="1">
                    <mxGeometry x="454" y="105" width="120" height="200" as="geometry"/>
                </mxCell>
                <mxCell id="11" style="edgeStyle=none;html=1;exitX=0.5;exitY=1;exitDx=0;exitDy=0;" edge="1" parent="1" source="8">
                    <mxGeometry relative="1" as="geometry">
                        <mxPoint x="414" y="505" as="targetPoint"/>
                    </mxGeometry>
                </mxCell>
                <mxCell id="8" value="" style="rhombus;" vertex="1" parent="1">
                    <mxGeometry x="349" y="385" width="130" height="65" as="geometry"/>
                </mxCell>
                <mxCell id="12" value="" style="endArrow=classic;html=1;entryX=0.5;entryY=0;entryDx=0;entryDy=0;" edge="1" parent="1" target="3">
                    <mxGeometry width="50" height="50" relative="1" as="geometry">
                        <mxPoint x="414" y="505" as="sourcePoint"/>
                        <mxPoint x="554" y="505" as="targetPoint"/>
                        <Array as="points">
                            <mxPoint x="554" y="505"/>
                        </Array>
                    </mxGeometry>
                </mxCell>
                <mxCell id="14" value="" style="endArrow=classic;html=1;entryX=0.5;entryY=0;entryDx=0;entryDy=0;" edge="1" parent="1" target="2">
                    <mxGeometry width="50" height="50" relative="1" as="geometry">
                        <mxPoint x="414" y="505" as="sourcePoint"/>
                        <mxPoint x="274" y="485" as="targetPoint"/>
                        <Array as="points">
                            <mxPoint x="274" y="505"/>
                        </Array>
                    </mxGeometry>
                </mxCell>
                <mxCell id="15" value="#ifdef MQ5" style="text;html=1;strokeColor=none;fillColor=none;align=center;verticalAlign=middle;whiteSpace=wrap;rounded=0;" vertex="1" parent="1">
                    <mxGeometry x="274" y="465" width="80" height="30" as="geometry"/>
                </mxCell>
                <mxCell id="17" value="#ifdef MQ4" style="text;html=1;strokeColor=none;fillColor=none;align=center;verticalAlign=middle;whiteSpace=wrap;rounded=0;" vertex="1" parent="1">
                    <mxGeometry x="484" y="465" width="80" height="30" as="geometry"/>
                </mxCell>
            </root>
        </mxGraphModel>
    </diagram>
</mxfile>